<svg xmlns="http://www.w3.org/2000/svg" viewBox="0 0 48 48">
  <path fill="#FFC107" d="M43.611 20.083H42V20H24v8h11.303C33.654 32.657 29.24 36 24 36c-6.627 0-12-5.373-12-12s5.373-12 12-12c3.059 0 5.842 1.154 7.961 3.039l5.657-5.657C34.046 6.053 29.27 4 24 4 12.955 4 4 12.955 4 24s8.955 20 20 20 20-8.955 20-20c0-1.341-.138-2.651-.389-3.917z"></path>
  <path fill="#FF3D00" d="M6.306 14.691l6.571 4.819C14.655 16.108 18.961 13 24 13c3.059 0 5.842 1.154 7.961 3.039l5.657-5.657C34.046 6.053 29.27 4 24 4c-7.682 0-14.318 4.337-17.694 10.691z"></path>
  <path fill="#4CAF50" d="M24 44c5.166 0 9.86-1.977 13.409-5.197l-6.19-5.238C29.143 35.091 26.715 36 24 36c-5.219 0-9.619-3.317-11.283-7.946l-6.522 5.025C9.505 39.556 16.227 44 24 44z"></path>
  <path fill="#1976D2" d="M43.611 20.083H42V20H24v8h11.303c-.793 2.286-2.279 4.244-4.084 5.565l.003-.002 6.19 5.238C36.971 39.205 44 34 44 24c0-1.341-.138-2.651-.389-3.917z"></path>
</svg>